<svg t="1607339949886" class="icon" viewBox="0 0 1024 1024" version="1.1" xmlns="http://www.w3.org/2000/svg" p-id="9373" width="128" height="128"><path d="M511.3 64.9c-247.4 0-448 200.6-448 448s200.6 448 448 448 448-200.6 448-448-200.5-448-448-448z m0 806.4c-197.6 0-358.4-160.8-358.4-358.4s160.8-358.4 358.4-358.4 358.4 160.8 358.4 358.4S709 871.3 511.3 871.3z" p-id="9374" data-spm-anchor-id="a313x.7781069.0.i31" fill="#ffffff" class="selected"></path><path d="M522.5 423.3c-24.7 0-44.8 20.1-44.8 44.8v224c0 24.7 20.1 44.8 44.8 44.8 24.7 0 44.8-20.1 44.8-44.8v-224c0-24.7-20-44.8-44.8-44.8zM522.5 288.9c-24.7 0-44.8 20.1-44.8 44.8 0 24.7 20.1 44.8 44.8 44.8 24.7 0 44.8-20.1 44.8-44.8 0-24.7-20-44.8-44.8-44.8z" p-id="9375" fill="#ffffff"></path></svg>
